<?xml version="1.0" encoding="UTF-8" standalone="no"?>
<svg
   xmlns:dc="http://purl.org/dc/elements/1.1/"
   xmlns:cc="http://creativecommons.org/ns#"
   xmlns:rdf="http://www.w3.org/1999/02/22-rdf-syntax-ns#"
   xmlns:svg="http://www.w3.org/2000/svg"
   xmlns="http://www.w3.org/2000/svg"
   xmlns:sodipodi="http://sodipodi.sourceforge.net/DTD/sodipodi-0.dtd"
   xmlns:inkscape="http://www.inkscape.org/namespaces/inkscape"
   width="256pt"
   height="256pt"
   viewBox="0 0 256 256"
   version="1.1"
   id="svg2"
   inkscape:version="0.91 r13725"
   sodipodi:docname="Microsoft_Skype_for_Business_logo.svg">
  <metadata
     id="metadata16">
    <rdf:RDF>
      <cc:Work
         rdf:about="">
        <dc:format>image/svg+xml</dc:format>
        <dc:type
           rdf:resource="http://purl.org/dc/dcmitype/StillImage" />
      </cc:Work>
    </rdf:RDF>
  </metadata>
  <defs
     id="defs14" />
  <sodipodi:namedview
     pagecolor="#ffffff"
     bordercolor="#666666"
     borderopacity="1"
     objecttolerance="10"
     gridtolerance="10"
     guidetolerance="10"
     inkscape:pageopacity="0"
     inkscape:pageshadow="2"
     inkscape:window-width="1920"
     inkscape:window-height="1137"
     id="namedview12"
     showgrid="false"
     inkscape:zoom="2.085965"
     inkscape:cx="209.46873"
     inkscape:cy="106.89686"
     inkscape:window-x="-8"
     inkscape:window-y="-8"
     inkscape:window-maximized="1"
     inkscape:current-layer="svg2" />
  <path
     fill="#fffffe"
     d=" M 0.00 0.00 L 256.00 0.00 L 256.00 256.00 L 0.00 256.00 L 0.00 0.00 Z"
     id="path4"
     style="fill:none" />
  <path
     fill="#00aff0"
     d=" M 38.00 21.99 C 58.33 7.32 87.08 6.06 108.73 18.61 C 133.14 14.38 158.95 18.40 180.73 30.27 C 205.04 43.33 224.13 65.76 233.02 91.90 C 239.13 109.59 240.55 128.82 237.37 147.25 C 245.19 161.00 247.90 177.55 244.73 193.06 C 241.38 210.17 230.83 225.68 216.24 235.21 C 196.04 248.79 168.29 249.56 147.25 237.38 C 123.82 241.41 99.11 237.92 77.91 227.10 C 53.27 214.72 33.62 192.82 24.01 166.97 C 17.05 148.50 15.30 128.18 18.61 108.74 C 10.62 94.75 8.03 77.84 11.44 62.10 C 14.82 46.02 24.55 31.41 38.00 21.99 Z"
     id="path6" />
  <path
     fill="#fffffe"
     d=" M 49.00 34.98 C 61.35 26.69 77.55 24.62 91.62 29.41 C 96.62 31.00 101.12 33.75 105.64 36.34 C 123.28 32.49 142.00 33.05 159.07 39.16 C 186.24 48.55 208.42 71.08 217.34 98.41 C 223.00 115.07 223.38 133.21 219.65 150.34 C 224.05 157.55 227.84 165.35 228.73 173.85 C 230.91 189.86 224.39 206.64 212.12 217.12 C 200.14 227.68 182.84 231.70 167.42 227.49 C 161.27 226.00 155.76 222.81 150.34 219.66 C 131.76 223.73 111.98 222.83 94.21 215.84 C 67.98 205.85 46.85 183.53 38.38 156.77 C 32.95 140.32 32.68 122.50 36.35 105.64 C 30.68 96.80 26.67 86.62 26.87 75.97 C 26.72 59.73 35.40 43.82 49.00 34.98 Z"
     id="path8"
     style="fill:#ffffff;fill-opacity:1" />
  <path
     fill="#00aff0"
     d=" M 113.41 60.77 C 129.40 58.35 146.25 60.80 160.52 68.54 C 166.76 72.00 172.80 76.68 175.70 83.40 C 177.59 87.82 177.80 93.59 174.31 97.29 C 170.53 101.16 164.36 102.35 159.29 100.72 C 153.42 98.26 150.50 92.11 145.52 88.45 C 139.26 83.29 130.83 81.90 122.94 82.04 C 117.17 82.29 110.99 83.60 106.78 87.84 C 102.89 91.99 101.45 99.10 105.24 103.77 C 108.82 107.90 114.35 109.44 119.42 110.85 C 129.09 113.27 138.87 115.22 148.58 117.51 C 158.68 119.82 168.88 124.24 175.55 132.47 C 187.05 147.37 184.46 171.00 170.16 183.20 C 158.72 193.33 142.81 196.13 127.99 196.22 C 112.17 195.99 95.26 192.75 83.10 181.93 C 77.00 176.43 71.87 168.13 73.71 159.64 C 75.72 151.20 87.31 148.00 93.88 153.19 C 98.90 157.22 101.62 163.35 106.46 167.56 C 112.25 172.87 120.32 174.98 128.04 174.79 C 135.61 174.99 143.65 172.67 148.84 166.91 C 152.37 163.02 154.24 157.10 151.95 152.12 C 150.07 147.44 145.24 144.89 140.62 143.63 C 132.10 141.40 123.52 139.37 115.00 137.12 C 105.64 134.83 95.91 132.74 87.86 127.16 C 81.58 122.99 76.82 116.48 75.29 109.06 C 72.72 97.42 74.56 83.99 83.02 75.10 C 90.76 66.49 102.24 62.49 113.41 60.77 Z"
     id="path10" />
</svg>
